<svg width="59" height="24" viewBox="0 0 59 24" fill="none" xmlns="http://www.w3.org/2000/svg">
<rect width="59" height="24" fill="white"/>
<g opacity="0.4">
<path d="M3.33366 11.3333C3.33366 14.2788 6.33366 17.3333 8.00033 17.3333C9.66699 17.3333 12.667 14.2788 12.667 11.3333C12.667 8.38777 10.5777 6.66663 8.00033 6.66663C5.423 6.66663 3.33366 8.38777 3.33366 11.3333Z" fill="#1463FF"/>
</g>
<path fill-rule="evenodd" clip-rule="evenodd" d="M13.7418 7.55453C13.4959 7.68007 13.3983 7.98123 13.5238 8.22718C13.9316 9.02612 14.167 9.98061 14.167 11.0832C14.167 11.772 14.0311 12.4754 13.7891 13.1683C13.6981 13.429 13.8356 13.7142 14.0963 13.8052C14.357 13.8963 14.6421 13.7588 14.7332 13.4981C15.0056 12.718 15.167 11.9027 15.167 11.0832C15.167 9.83569 14.8999 8.7235 14.4145 7.77254C14.2889 7.52659 13.9878 7.42898 13.7418 7.55453ZM2.25884 7.55453C2.01289 7.42898 1.71173 7.52659 1.58618 7.77254C1.10076 8.7235 0.833658 9.83569 0.833658 11.0832C0.833658 11.9027 0.99501 12.718 1.26746 13.4981C1.35852 13.7588 1.64367 13.8963 1.90437 13.8052C2.16507 13.7142 2.30259 13.429 2.21153 13.1683C1.96951 12.4754 1.83366 11.772 1.83366 11.0832C1.83366 9.98061 2.06904 9.02612 2.47685 8.22718C2.6024 7.98123 2.50479 7.68007 2.25884 7.55453Z" fill="#1463FF"/>
<ellipse cx="2" cy="2" rx="2" ry="2" transform="matrix(-1 0 0 1 10 9.33325)" fill="#1463FF"/>
<path d="M23.84 8.87C24.7067 8.87 25.4267 9.09 26 9.53C26.5733 9.97 26.96 10.5667 27.16 11.32H25.95C25.7833 10.8933 25.5167 10.5567 25.15 10.31C24.79 10.0567 24.3467 9.93 23.82 9.93C23.4 9.93 23.0233 10.0333 22.69 10.24C22.3633 10.4467 22.1033 10.7433 21.91 11.13C21.7233 11.51 21.63 11.9567 21.63 12.47C21.63 12.9767 21.7233 13.4233 21.91 13.81C22.1033 14.19 22.3633 14.4833 22.69 14.69C23.0233 14.8967 23.4 15 23.82 15C24.3467 15 24.79 14.8767 25.15 14.63C25.5167 14.3767 25.7833 14.04 25.95 13.62H27.16C26.96 14.3733 26.5733 14.97 26 15.41C25.4267 15.8433 24.7067 16.06 23.84 16.06C23.1733 16.06 22.5833 15.91 22.07 15.61C21.5567 15.3033 21.16 14.88 20.88 14.34C20.6 13.7933 20.46 13.17 20.46 12.47C20.46 11.77 20.6 11.15 20.88 10.61C21.16 10.0633 21.5567 9.63667 22.07 9.33C22.5833 9.02333 23.1733 8.87 23.84 8.87ZM29.4374 11.57C29.6241 11.21 29.8908 10.9267 30.2374 10.72C30.5841 10.5067 30.9841 10.4 31.4374 10.4V11.64H31.0974C30.5974 11.64 30.1941 11.7633 29.8874 12.01C29.5874 12.25 29.4374 12.65 29.4374 13.21V16H28.2974V10.49H29.4374V11.57ZM32.1316 8.89C32.1316 8.69667 32.1982 8.53667 32.3316 8.41C32.4649 8.28333 32.6416 8.22 32.8616 8.22C33.0816 8.22 33.2582 8.28333 33.3916 8.41C33.5316 8.53667 33.6016 8.69667 33.6016 8.89C33.6016 9.08333 33.5316 9.24 33.3916 9.36C33.2582 9.48 33.0816 9.54 32.8616 9.54C32.6416 9.54 32.4649 9.48 32.3316 9.36C32.1982 9.24 32.1316 9.08333 32.1316 8.89ZM33.4316 10.49V16H32.2916V10.49H33.4316ZM41.7011 10.4C42.3544 10.4 42.8744 10.6067 43.2611 11.02C43.6544 11.4333 43.8511 12.0233 43.8511 12.79V16H42.7111V12.91C42.7111 12.43 42.5911 12.06 42.3511 11.8C42.1111 11.5333 41.7811 11.4 41.3611 11.4C40.9144 11.4 40.5578 11.5433 40.2911 11.83C40.0311 12.11 39.9011 12.5233 39.9011 13.07V16H38.7611V12.91C38.7611 12.43 38.6411 12.06 38.4011 11.8C38.1611 11.5333 37.8311 11.4 37.4111 11.4C36.9644 11.4 36.6078 11.5433 36.3411 11.83C36.0811 12.11 35.9511 12.5233 35.9511 13.07V16H34.8111V10.49H35.9511V11.64C36.0911 11.24 36.3244 10.9333 36.6511 10.72C36.9778 10.5067 37.3611 10.4 37.8011 10.4C38.2611 10.4 38.6578 10.5133 38.9911 10.74C39.3311 10.9667 39.5778 11.2933 39.7311 11.72C39.8911 11.3067 40.1478 10.9833 40.5011 10.75C40.8544 10.5167 41.2544 10.4 41.7011 10.4ZM50.3022 12.98C50.3022 13.1667 50.2889 13.33 50.2622 13.47H46.0222C46.0422 14.0367 46.1989 14.4567 46.4922 14.73C46.7855 15.0033 47.1489 15.14 47.5822 15.14C47.9622 15.14 48.2822 15.0433 48.5422 14.85C48.8089 14.6567 48.9722 14.4 49.0322 14.08H50.2522C50.1789 14.4667 50.0255 14.81 49.7922 15.11C49.5589 15.41 49.2555 15.6467 48.8822 15.82C48.5089 15.9867 48.0922 16.07 47.6322 16.07C47.0989 16.07 46.6255 15.9567 46.2122 15.73C45.8055 15.5033 45.4855 15.1767 45.2522 14.75C45.0189 14.3233 44.9022 13.82 44.9022 13.24C44.9022 12.6667 45.0189 12.1667 45.2522 11.74C45.4855 11.3133 45.8055 10.9867 46.2122 10.76C46.6255 10.5333 47.0989 10.42 47.6322 10.42C48.1722 10.42 48.6422 10.5333 49.0422 10.76C49.4489 10.98 49.7589 11.2867 49.9722 11.68C50.1922 12.0667 50.3022 12.5 50.3022 12.98ZM49.1522 12.95C49.1655 12.59 49.1022 12.29 48.9622 12.05C48.8289 11.8033 48.6422 11.6233 48.4022 11.51C48.1689 11.39 47.9122 11.33 47.6322 11.33C47.1855 11.33 46.8122 11.4667 46.5122 11.74C46.2122 12.0133 46.0489 12.4167 46.0222 12.95H49.1522Z" fill="#090E24"/>
</svg>
